{"title":"Red.Dawn.2012.TS.XViD-UNiQUE","uid":7877323,"size":1502708051,"categoryP":"video","categoryS":"movies","magnet":"?xt=urn:btih:de8e04fdf834c1ecc2698c0fd62aebfd933329bf&amp;dn=Red.Dawn.2012.TS.XViD-UNiQUE&amp;tr=udp%3A%2F%2Ftracker.openbittorrent.com%3A80&amp;tr=udp%3A%2F%2Fopen.demonii.com%3A1337&amp;tr=udp%3A%2F%2Ftracker.coppersurfer.tk%3A6969&amp;tr=udp%3A%2F%2Fexodus.desync.com%3A6969","seeders":2,"leechers":2,"uploader":"Acesn8s","files":-1,"time":1354379222,"description":"....Why be the same as everyone else when YOU can be UNiQUE....            \n\n\n\nFormat                                   : AVI\nFormat/Info                              : Audio Video Interleave\nFile size                                : 1.38 GiB\nDuration                                 : 1h 28mn\nOverall bit rate                         : 2 252 Kbps\nRecorded date                            : 2012-11-26T16:29:45.0095+01:00\nWriting application                      : VirtualDubMod 1.5.10.2 (build 2540/release)\nWriting library                          : VirtualDubMod build 2540/release\n\nVideo\nID                                       : 0\nFormat                                   : MPEG-4 Visual\nFormat profile                           : Advanced Simple@L5\nFormat settings, BVOP                    : 2\nFormat settings, QPel                    : No\nFormat settings, GMC                     : No warppoints\nFormat settings, Matrix                  : Default (H.263)\nMuxing mode                              : Packed bitstream\nCodec ID                                 : XVID\nCodec ID/Hint                            : XviD\nDuration                                 : 1h 28mn\nBit rate                                 : 2 115 Kbps\nWidth                                    : 720 pixels\nHeight                                   : 288 pixels\nDisplay aspect ratio                     : 2.500\nFrame rate                               : 24.000 fps\nColor space                              : YUV\nChroma subsampling                       : 4:2:0\nBit depth                                : 8 bits\nScan type                                : Progressive\nCompression mode                         : Lossy\nBits/(Pixel*Frame)                       : 0.425\nStream size                              : 1.30 GiB (94%)\nWriting library                          : XviD 64\n\nAudio\nID                                       : 1\nFormat                                   : MPEG Audio\nFormat version                           : Version 1\nFormat profile                           : Layer 3\nMode                                     : Joint stereo\nMode extension                           : MS Stereo\nCodec ID                                 : 55\nCodec ID/Hint                            : MP3\nDuration                                 : 1h 28mn\nBit rate mode                            : Constant\nBit rate                                 : 128 Kbps\nChannel(s)                               : 2 channels\nSampling rate                            : 48.0 KHz\nCompression mode                         : Lossy\nStream size                              : 80.5 MiB (6%)\nAlignment                                : Split accross interleaves\nInterleave, duration                     : 42 ms (1.00 video frame)\nInterleave, preload duration             : 500 ms\nWriting library                          : LAME3.99r\nEncoding settings                        : -m j -V 4 -q 3 -lowpass 17 -b 128\n &lt;a href=&quot;\nhttp://www.imdb.com/title/tt1234719/&quot; rel=&quot;nofollow&quot; target=&quot;_NEW&quot;&gt;\nhttp://www.imdb.com/title/tt1234719/&lt;/a&gt;\n\nRatings: 5.7/10 from 5,512 users   Metascore: 32/100  \nReviews: 51 user | 69 critic | 30 from Metacritic.com\nA group of teenagers look to save their town from an invasion of North Korean soldiers.\n\nSource Used\n\nBLOODYMARY/Echo...........Thanks\n\nVid was way oversharpened.........so ran... smoother which i dont usually do and whacked the levels up so you could actually see vid :-O:-O\n\nCorrected AR and a whole lot more :P\n\nExact same copy as the cam but with line\n\nEnjoy\n\n\n","torrent":{"xt":"urn:btih:de8e04fdf834c1ecc2698c0fd62aebfd933329bf","amp;dn":"Red.Dawn.2012.TS.XViD-UNiQUE","amp;tr":["udp%3A%2F%2Ftracker.openbittorrent.com%3A80","udp%3A%2F%2Fopen.demonii.com%3A1337","udp%3A%2F%2Ftracker.coppersurfer.tk%3A6969","udp%3A%2F%2Fexodus.desync.com%3A6969"],"infoHash":"de8e04fdf834c1ecc2698c0fd62aebfd933329bf","infoHashBuffer":{"type":"Buffer","data":[222,142,4,253,248,52,193,236,194,105,140,15,214,42,235,253,147,51,41,191]},"announce":[],"urlList":[]}}